<mxfile host="app.diagrams.net" agent="Mozilla/5.0 (Macintosh; Intel Mac OS X 10_15_7) AppleWebKit/537.36 (KHTML, like Gecko) Chrome/134.0.0.0 YaBrowser/25.4.0.0 Safari/537.36" version="26.2.12">
  <diagram name="Page-1" id="yXXxy7qz2wfKuxrvr1Yr">
    <mxGraphModel dx="1142" dy="669" grid="1" gridSize="10" guides="1" tooltips="1" connect="1" arrows="1" fold="1" page="1" pageScale="1" pageWidth="2339" pageHeight="3300" math="0" shadow="0">
      <root>
        <mxCell id="0" />
        <mxCell id="1" parent="0" />
        <mxCell id="sKIPhGIStelRBDxJ9E2L-1" value="IT Landscape Map" style="shape=table;startSize=30;container=1;collapsible=0;childLayout=tableLayout;strokeColor=default;fontSize=16;" parent="1" vertex="1">
          <mxGeometry x="80" y="80" width="1078" height="492" as="geometry" />
        </mxCell>
        <mxCell id="sKIPhGIStelRBDxJ9E2L-2" value="" style="shape=tableRow;horizontal=0;startSize=0;swimlaneHead=0;swimlaneBody=0;strokeColor=inherit;top=0;left=0;bottom=0;right=0;collapsible=0;dropTarget=0;fillColor=none;points=[[0,0.5],[1,0.5]];portConstraint=eastwest;fontSize=16;" parent="sKIPhGIStelRBDxJ9E2L-1" vertex="1">
          <mxGeometry y="30" width="1078" height="66" as="geometry" />
        </mxCell>
        <mxCell id="sKIPhGIStelRBDxJ9E2L-3" value="" style="shape=partialRectangle;html=1;whiteSpace=wrap;connectable=0;strokeColor=inherit;overflow=hidden;fillColor=none;top=0;left=0;bottom=0;right=0;pointerEvents=1;fontSize=16;" parent="sKIPhGIStelRBDxJ9E2L-2" vertex="1">
          <mxGeometry width="154" height="66" as="geometry">
            <mxRectangle width="154" height="66" as="alternateBounds" />
          </mxGeometry>
        </mxCell>
        <mxCell id="sKIPhGIStelRBDxJ9E2L-4" value="Продажи в сети отделений" style="shape=partialRectangle;html=1;whiteSpace=wrap;connectable=0;strokeColor=inherit;overflow=hidden;fillColor=none;top=0;left=0;bottom=0;right=0;pointerEvents=1;fontSize=16;" parent="sKIPhGIStelRBDxJ9E2L-2" vertex="1">
          <mxGeometry x="154" width="154" height="66" as="geometry">
            <mxRectangle width="154" height="66" as="alternateBounds" />
          </mxGeometry>
        </mxCell>
        <mxCell id="sKIPhGIStelRBDxJ9E2L-5" value="Обслуживание депозитных процессов" style="shape=partialRectangle;html=1;whiteSpace=wrap;connectable=0;strokeColor=inherit;overflow=hidden;fillColor=none;top=0;left=0;bottom=0;right=0;pointerEvents=1;fontSize=16;" parent="sKIPhGIStelRBDxJ9E2L-2" vertex="1">
          <mxGeometry x="308" width="154" height="66" as="geometry">
            <mxRectangle width="154" height="66" as="alternateBounds" />
          </mxGeometry>
        </mxCell>
        <mxCell id="sKIPhGIStelRBDxJ9E2L-14" value="Обслуживание кредитных процессов" style="shape=partialRectangle;html=1;whiteSpace=wrap;connectable=0;strokeColor=inherit;overflow=hidden;fillColor=none;top=0;left=0;bottom=0;right=0;pointerEvents=1;fontSize=16;" parent="sKIPhGIStelRBDxJ9E2L-2" vertex="1">
          <mxGeometry x="462" width="154" height="66" as="geometry">
            <mxRectangle width="154" height="66" as="alternateBounds" />
          </mxGeometry>
        </mxCell>
        <mxCell id="sKIPhGIStelRBDxJ9E2L-17" value="Управление договорами" style="shape=partialRectangle;html=1;whiteSpace=wrap;connectable=0;strokeColor=inherit;overflow=hidden;fillColor=none;top=0;left=0;bottom=0;right=0;pointerEvents=1;fontSize=16;" parent="sKIPhGIStelRBDxJ9E2L-2" vertex="1">
          <mxGeometry x="616" width="154" height="66" as="geometry">
            <mxRectangle width="154" height="66" as="alternateBounds" />
          </mxGeometry>
        </mxCell>
        <mxCell id="VhlRy4VZhJ0WZ9JeDpgp-1" value="Продажи через колл-центр" style="shape=partialRectangle;html=1;whiteSpace=wrap;connectable=0;strokeColor=inherit;overflow=hidden;fillColor=none;top=0;left=0;bottom=0;right=0;pointerEvents=1;fontSize=16;" parent="sKIPhGIStelRBDxJ9E2L-2" vertex="1">
          <mxGeometry x="770" width="154" height="66" as="geometry">
            <mxRectangle width="154" height="66" as="alternateBounds" />
          </mxGeometry>
        </mxCell>
        <mxCell id="VhlRy4VZhJ0WZ9JeDpgp-8" value="Digital-оповещения клиентов" style="shape=partialRectangle;html=1;whiteSpace=wrap;connectable=0;strokeColor=inherit;overflow=hidden;fillColor=none;top=0;left=0;bottom=0;right=0;pointerEvents=1;fontSize=16;" parent="sKIPhGIStelRBDxJ9E2L-2" vertex="1">
          <mxGeometry x="924" width="154" height="66" as="geometry">
            <mxRectangle width="154" height="66" as="alternateBounds" />
          </mxGeometry>
        </mxCell>
        <mxCell id="sKIPhGIStelRBDxJ9E2L-6" value="" style="shape=tableRow;horizontal=0;startSize=0;swimlaneHead=0;swimlaneBody=0;strokeColor=inherit;top=0;left=0;bottom=0;right=0;collapsible=0;dropTarget=0;fillColor=none;points=[[0,0.5],[1,0.5]];portConstraint=eastwest;fontSize=16;" parent="sKIPhGIStelRBDxJ9E2L-1" vertex="1">
          <mxGeometry y="96" width="1078" height="66" as="geometry" />
        </mxCell>
        <mxCell id="sKIPhGIStelRBDxJ9E2L-7" value="Управление обслуживанием в сети отделений" style="shape=partialRectangle;html=1;whiteSpace=wrap;connectable=0;strokeColor=inherit;overflow=hidden;fillColor=none;top=0;left=0;bottom=0;right=0;pointerEvents=1;fontSize=16;" parent="sKIPhGIStelRBDxJ9E2L-6" vertex="1">
          <mxGeometry width="154" height="66" as="geometry">
            <mxRectangle width="154" height="66" as="alternateBounds" />
          </mxGeometry>
        </mxCell>
        <mxCell id="sKIPhGIStelRBDxJ9E2L-8" value="" style="shape=partialRectangle;html=1;whiteSpace=wrap;connectable=0;strokeColor=inherit;overflow=hidden;fillColor=none;top=0;left=0;bottom=0;right=0;pointerEvents=1;fontSize=16;" parent="sKIPhGIStelRBDxJ9E2L-6" vertex="1">
          <mxGeometry x="154" width="154" height="66" as="geometry">
            <mxRectangle width="154" height="66" as="alternateBounds" />
          </mxGeometry>
        </mxCell>
        <mxCell id="sKIPhGIStelRBDxJ9E2L-9" value="" style="shape=partialRectangle;html=1;whiteSpace=wrap;connectable=0;strokeColor=inherit;overflow=hidden;fillColor=none;top=0;left=0;bottom=0;right=0;pointerEvents=1;fontSize=16;" parent="sKIPhGIStelRBDxJ9E2L-6" vertex="1">
          <mxGeometry x="308" width="154" height="66" as="geometry">
            <mxRectangle width="154" height="66" as="alternateBounds" />
          </mxGeometry>
        </mxCell>
        <mxCell id="sKIPhGIStelRBDxJ9E2L-15" value="" style="shape=partialRectangle;html=1;whiteSpace=wrap;connectable=0;strokeColor=inherit;overflow=hidden;fillColor=none;top=0;left=0;bottom=0;right=0;pointerEvents=1;fontSize=16;" parent="sKIPhGIStelRBDxJ9E2L-6" vertex="1">
          <mxGeometry x="462" width="154" height="66" as="geometry">
            <mxRectangle width="154" height="66" as="alternateBounds" />
          </mxGeometry>
        </mxCell>
        <mxCell id="sKIPhGIStelRBDxJ9E2L-18" style="shape=partialRectangle;html=1;whiteSpace=wrap;connectable=0;strokeColor=inherit;overflow=hidden;fillColor=none;top=0;left=0;bottom=0;right=0;pointerEvents=1;fontSize=16;" parent="sKIPhGIStelRBDxJ9E2L-6" vertex="1">
          <mxGeometry x="616" width="154" height="66" as="geometry">
            <mxRectangle width="154" height="66" as="alternateBounds" />
          </mxGeometry>
        </mxCell>
        <mxCell id="VhlRy4VZhJ0WZ9JeDpgp-2" style="shape=partialRectangle;html=1;whiteSpace=wrap;connectable=0;strokeColor=inherit;overflow=hidden;fillColor=none;top=0;left=0;bottom=0;right=0;pointerEvents=1;fontSize=16;" parent="sKIPhGIStelRBDxJ9E2L-6" vertex="1">
          <mxGeometry x="770" width="154" height="66" as="geometry">
            <mxRectangle width="154" height="66" as="alternateBounds" />
          </mxGeometry>
        </mxCell>
        <mxCell id="VhlRy4VZhJ0WZ9JeDpgp-9" style="shape=partialRectangle;html=1;whiteSpace=wrap;connectable=0;strokeColor=inherit;overflow=hidden;fillColor=none;top=0;left=0;bottom=0;right=0;pointerEvents=1;fontSize=16;" parent="sKIPhGIStelRBDxJ9E2L-6" vertex="1">
          <mxGeometry x="924" width="154" height="66" as="geometry">
            <mxRectangle width="154" height="66" as="alternateBounds" />
          </mxGeometry>
        </mxCell>
        <mxCell id="sKIPhGIStelRBDxJ9E2L-10" value="" style="shape=tableRow;horizontal=0;startSize=0;swimlaneHead=0;swimlaneBody=0;strokeColor=inherit;top=0;left=0;bottom=0;right=0;collapsible=0;dropTarget=0;fillColor=none;points=[[0,0.5],[1,0.5]];portConstraint=eastwest;fontSize=16;" parent="sKIPhGIStelRBDxJ9E2L-1" vertex="1">
          <mxGeometry y="162" width="1078" height="66" as="geometry" />
        </mxCell>
        <mxCell id="sKIPhGIStelRBDxJ9E2L-11" value="Управление обслуживанием депозитов" style="shape=partialRectangle;html=1;whiteSpace=wrap;connectable=0;strokeColor=inherit;overflow=hidden;fillColor=none;top=0;left=0;bottom=0;right=0;pointerEvents=1;fontSize=16;" parent="sKIPhGIStelRBDxJ9E2L-10" vertex="1">
          <mxGeometry width="154" height="66" as="geometry">
            <mxRectangle width="154" height="66" as="alternateBounds" />
          </mxGeometry>
        </mxCell>
        <mxCell id="sKIPhGIStelRBDxJ9E2L-12" value="" style="shape=partialRectangle;html=1;whiteSpace=wrap;connectable=0;strokeColor=inherit;overflow=hidden;fillColor=none;top=0;left=0;bottom=0;right=0;pointerEvents=1;fontSize=16;" parent="sKIPhGIStelRBDxJ9E2L-10" vertex="1">
          <mxGeometry x="154" width="154" height="66" as="geometry">
            <mxRectangle width="154" height="66" as="alternateBounds" />
          </mxGeometry>
        </mxCell>
        <mxCell id="sKIPhGIStelRBDxJ9E2L-13" value="" style="shape=partialRectangle;html=1;whiteSpace=wrap;connectable=0;strokeColor=inherit;overflow=hidden;fillColor=none;top=0;left=0;bottom=0;right=0;pointerEvents=1;fontSize=16;" parent="sKIPhGIStelRBDxJ9E2L-10" vertex="1">
          <mxGeometry x="308" width="154" height="66" as="geometry">
            <mxRectangle width="154" height="66" as="alternateBounds" />
          </mxGeometry>
        </mxCell>
        <mxCell id="sKIPhGIStelRBDxJ9E2L-16" style="shape=partialRectangle;html=1;whiteSpace=wrap;connectable=0;strokeColor=inherit;overflow=hidden;fillColor=none;top=0;left=0;bottom=0;right=0;pointerEvents=1;fontSize=16;" parent="sKIPhGIStelRBDxJ9E2L-10" vertex="1">
          <mxGeometry x="462" width="154" height="66" as="geometry">
            <mxRectangle width="154" height="66" as="alternateBounds" />
          </mxGeometry>
        </mxCell>
        <mxCell id="sKIPhGIStelRBDxJ9E2L-19" style="shape=partialRectangle;html=1;whiteSpace=wrap;connectable=0;strokeColor=inherit;overflow=hidden;fillColor=none;top=0;left=0;bottom=0;right=0;pointerEvents=1;fontSize=16;" parent="sKIPhGIStelRBDxJ9E2L-10" vertex="1">
          <mxGeometry x="616" width="154" height="66" as="geometry">
            <mxRectangle width="154" height="66" as="alternateBounds" />
          </mxGeometry>
        </mxCell>
        <mxCell id="VhlRy4VZhJ0WZ9JeDpgp-3" style="shape=partialRectangle;html=1;whiteSpace=wrap;connectable=0;strokeColor=inherit;overflow=hidden;fillColor=none;top=0;left=0;bottom=0;right=0;pointerEvents=1;fontSize=16;" parent="sKIPhGIStelRBDxJ9E2L-10" vertex="1">
          <mxGeometry x="770" width="154" height="66" as="geometry">
            <mxRectangle width="154" height="66" as="alternateBounds" />
          </mxGeometry>
        </mxCell>
        <mxCell id="VhlRy4VZhJ0WZ9JeDpgp-10" style="shape=partialRectangle;html=1;whiteSpace=wrap;connectable=0;strokeColor=inherit;overflow=hidden;fillColor=none;top=0;left=0;bottom=0;right=0;pointerEvents=1;fontSize=16;" parent="sKIPhGIStelRBDxJ9E2L-10" vertex="1">
          <mxGeometry x="924" width="154" height="66" as="geometry">
            <mxRectangle width="154" height="66" as="alternateBounds" />
          </mxGeometry>
        </mxCell>
        <mxCell id="sKIPhGIStelRBDxJ9E2L-20" style="shape=tableRow;horizontal=0;startSize=0;swimlaneHead=0;swimlaneBody=0;strokeColor=inherit;top=0;left=0;bottom=0;right=0;collapsible=0;dropTarget=0;fillColor=none;points=[[0,0.5],[1,0.5]];portConstraint=eastwest;fontSize=16;" parent="sKIPhGIStelRBDxJ9E2L-1" vertex="1">
          <mxGeometry y="228" width="1078" height="66" as="geometry" />
        </mxCell>
        <mxCell id="sKIPhGIStelRBDxJ9E2L-21" value="Управление обслуживанием кредитов" style="shape=partialRectangle;html=1;whiteSpace=wrap;connectable=0;strokeColor=inherit;overflow=hidden;fillColor=none;top=0;left=0;bottom=0;right=0;pointerEvents=1;fontSize=16;" parent="sKIPhGIStelRBDxJ9E2L-20" vertex="1">
          <mxGeometry width="154" height="66" as="geometry">
            <mxRectangle width="154" height="66" as="alternateBounds" />
          </mxGeometry>
        </mxCell>
        <mxCell id="sKIPhGIStelRBDxJ9E2L-22" value="" style="shape=partialRectangle;html=1;whiteSpace=wrap;connectable=0;strokeColor=inherit;overflow=hidden;fillColor=none;top=0;left=0;bottom=0;right=0;pointerEvents=1;fontSize=16;" parent="sKIPhGIStelRBDxJ9E2L-20" vertex="1">
          <mxGeometry x="154" width="154" height="66" as="geometry">
            <mxRectangle width="154" height="66" as="alternateBounds" />
          </mxGeometry>
        </mxCell>
        <mxCell id="sKIPhGIStelRBDxJ9E2L-23" style="shape=partialRectangle;html=1;whiteSpace=wrap;connectable=0;strokeColor=inherit;overflow=hidden;fillColor=none;top=0;left=0;bottom=0;right=0;pointerEvents=1;fontSize=16;" parent="sKIPhGIStelRBDxJ9E2L-20" vertex="1">
          <mxGeometry x="308" width="154" height="66" as="geometry">
            <mxRectangle width="154" height="66" as="alternateBounds" />
          </mxGeometry>
        </mxCell>
        <mxCell id="sKIPhGIStelRBDxJ9E2L-24" style="shape=partialRectangle;html=1;whiteSpace=wrap;connectable=0;strokeColor=inherit;overflow=hidden;fillColor=none;top=0;left=0;bottom=0;right=0;pointerEvents=1;fontSize=16;" parent="sKIPhGIStelRBDxJ9E2L-20" vertex="1">
          <mxGeometry x="462" width="154" height="66" as="geometry">
            <mxRectangle width="154" height="66" as="alternateBounds" />
          </mxGeometry>
        </mxCell>
        <mxCell id="sKIPhGIStelRBDxJ9E2L-25" style="shape=partialRectangle;html=1;whiteSpace=wrap;connectable=0;strokeColor=inherit;overflow=hidden;fillColor=none;top=0;left=0;bottom=0;right=0;pointerEvents=1;fontSize=16;" parent="sKIPhGIStelRBDxJ9E2L-20" vertex="1">
          <mxGeometry x="616" width="154" height="66" as="geometry">
            <mxRectangle width="154" height="66" as="alternateBounds" />
          </mxGeometry>
        </mxCell>
        <mxCell id="VhlRy4VZhJ0WZ9JeDpgp-4" style="shape=partialRectangle;html=1;whiteSpace=wrap;connectable=0;strokeColor=inherit;overflow=hidden;fillColor=none;top=0;left=0;bottom=0;right=0;pointerEvents=1;fontSize=16;" parent="sKIPhGIStelRBDxJ9E2L-20" vertex="1">
          <mxGeometry x="770" width="154" height="66" as="geometry">
            <mxRectangle width="154" height="66" as="alternateBounds" />
          </mxGeometry>
        </mxCell>
        <mxCell id="VhlRy4VZhJ0WZ9JeDpgp-11" style="shape=partialRectangle;html=1;whiteSpace=wrap;connectable=0;strokeColor=inherit;overflow=hidden;fillColor=none;top=0;left=0;bottom=0;right=0;pointerEvents=1;fontSize=16;" parent="sKIPhGIStelRBDxJ9E2L-20" vertex="1">
          <mxGeometry x="924" width="154" height="66" as="geometry">
            <mxRectangle width="154" height="66" as="alternateBounds" />
          </mxGeometry>
        </mxCell>
        <mxCell id="sKIPhGIStelRBDxJ9E2L-26" style="shape=tableRow;horizontal=0;startSize=0;swimlaneHead=0;swimlaneBody=0;strokeColor=inherit;top=0;left=0;bottom=0;right=0;collapsible=0;dropTarget=0;fillColor=none;points=[[0,0.5],[1,0.5]];portConstraint=eastwest;fontSize=16;" parent="sKIPhGIStelRBDxJ9E2L-1" vertex="1">
          <mxGeometry y="294" width="1078" height="66" as="geometry" />
        </mxCell>
        <mxCell id="sKIPhGIStelRBDxJ9E2L-27" value="Команда цифровой трансформации розницы" style="shape=partialRectangle;html=1;whiteSpace=wrap;connectable=0;strokeColor=inherit;overflow=hidden;fillColor=none;top=0;left=0;bottom=0;right=0;pointerEvents=1;fontSize=16;" parent="sKIPhGIStelRBDxJ9E2L-26" vertex="1">
          <mxGeometry width="154" height="66" as="geometry">
            <mxRectangle width="154" height="66" as="alternateBounds" />
          </mxGeometry>
        </mxCell>
        <mxCell id="sKIPhGIStelRBDxJ9E2L-28" style="shape=partialRectangle;html=1;whiteSpace=wrap;connectable=0;strokeColor=inherit;overflow=hidden;fillColor=none;top=0;left=0;bottom=0;right=0;pointerEvents=1;fontSize=16;" parent="sKIPhGIStelRBDxJ9E2L-26" vertex="1">
          <mxGeometry x="154" width="154" height="66" as="geometry">
            <mxRectangle width="154" height="66" as="alternateBounds" />
          </mxGeometry>
        </mxCell>
        <mxCell id="sKIPhGIStelRBDxJ9E2L-29" style="shape=partialRectangle;html=1;whiteSpace=wrap;connectable=0;strokeColor=inherit;overflow=hidden;fillColor=none;top=0;left=0;bottom=0;right=0;pointerEvents=1;fontSize=16;" parent="sKIPhGIStelRBDxJ9E2L-26" vertex="1">
          <mxGeometry x="308" width="154" height="66" as="geometry">
            <mxRectangle width="154" height="66" as="alternateBounds" />
          </mxGeometry>
        </mxCell>
        <mxCell id="sKIPhGIStelRBDxJ9E2L-30" style="shape=partialRectangle;html=1;whiteSpace=wrap;connectable=0;strokeColor=inherit;overflow=hidden;fillColor=none;top=0;left=0;bottom=0;right=0;pointerEvents=1;fontSize=16;" parent="sKIPhGIStelRBDxJ9E2L-26" vertex="1">
          <mxGeometry x="462" width="154" height="66" as="geometry">
            <mxRectangle width="154" height="66" as="alternateBounds" />
          </mxGeometry>
        </mxCell>
        <mxCell id="sKIPhGIStelRBDxJ9E2L-31" style="shape=partialRectangle;html=1;whiteSpace=wrap;connectable=0;strokeColor=inherit;overflow=hidden;fillColor=none;top=0;left=0;bottom=0;right=0;pointerEvents=1;fontSize=16;" parent="sKIPhGIStelRBDxJ9E2L-26" vertex="1">
          <mxGeometry x="616" width="154" height="66" as="geometry">
            <mxRectangle width="154" height="66" as="alternateBounds" />
          </mxGeometry>
        </mxCell>
        <mxCell id="VhlRy4VZhJ0WZ9JeDpgp-5" style="shape=partialRectangle;html=1;whiteSpace=wrap;connectable=0;strokeColor=inherit;overflow=hidden;fillColor=none;top=0;left=0;bottom=0;right=0;pointerEvents=1;fontSize=16;" parent="sKIPhGIStelRBDxJ9E2L-26" vertex="1">
          <mxGeometry x="770" width="154" height="66" as="geometry">
            <mxRectangle width="154" height="66" as="alternateBounds" />
          </mxGeometry>
        </mxCell>
        <mxCell id="VhlRy4VZhJ0WZ9JeDpgp-12" style="shape=partialRectangle;html=1;whiteSpace=wrap;connectable=0;strokeColor=inherit;overflow=hidden;fillColor=none;top=0;left=0;bottom=0;right=0;pointerEvents=1;fontSize=16;" parent="sKIPhGIStelRBDxJ9E2L-26" vertex="1">
          <mxGeometry x="924" width="154" height="66" as="geometry">
            <mxRectangle width="154" height="66" as="alternateBounds" />
          </mxGeometry>
        </mxCell>
        <mxCell id="sKIPhGIStelRBDxJ9E2L-32" style="shape=tableRow;horizontal=0;startSize=0;swimlaneHead=0;swimlaneBody=0;strokeColor=inherit;top=0;left=0;bottom=0;right=0;collapsible=0;dropTarget=0;fillColor=none;points=[[0,0.5],[1,0.5]];portConstraint=eastwest;fontSize=16;" parent="sKIPhGIStelRBDxJ9E2L-1" vertex="1">
          <mxGeometry y="360" width="1078" height="66" as="geometry" />
        </mxCell>
        <mxCell id="sKIPhGIStelRBDxJ9E2L-33" value="IT-отдел" style="shape=partialRectangle;html=1;whiteSpace=wrap;connectable=0;strokeColor=inherit;overflow=hidden;fillColor=none;top=0;left=0;bottom=0;right=0;pointerEvents=1;fontSize=16;" parent="sKIPhGIStelRBDxJ9E2L-32" vertex="1">
          <mxGeometry width="154" height="66" as="geometry">
            <mxRectangle width="154" height="66" as="alternateBounds" />
          </mxGeometry>
        </mxCell>
        <mxCell id="sKIPhGIStelRBDxJ9E2L-34" style="shape=partialRectangle;html=1;whiteSpace=wrap;connectable=0;strokeColor=inherit;overflow=hidden;fillColor=none;top=0;left=0;bottom=0;right=0;pointerEvents=1;fontSize=16;" parent="sKIPhGIStelRBDxJ9E2L-32" vertex="1">
          <mxGeometry x="154" width="154" height="66" as="geometry">
            <mxRectangle width="154" height="66" as="alternateBounds" />
          </mxGeometry>
        </mxCell>
        <mxCell id="sKIPhGIStelRBDxJ9E2L-35" style="shape=partialRectangle;html=1;whiteSpace=wrap;connectable=0;strokeColor=inherit;overflow=hidden;fillColor=none;top=0;left=0;bottom=0;right=0;pointerEvents=1;fontSize=16;" parent="sKIPhGIStelRBDxJ9E2L-32" vertex="1">
          <mxGeometry x="308" width="154" height="66" as="geometry">
            <mxRectangle width="154" height="66" as="alternateBounds" />
          </mxGeometry>
        </mxCell>
        <mxCell id="sKIPhGIStelRBDxJ9E2L-36" style="shape=partialRectangle;html=1;whiteSpace=wrap;connectable=0;strokeColor=inherit;overflow=hidden;fillColor=none;top=0;left=0;bottom=0;right=0;pointerEvents=1;fontSize=16;" parent="sKIPhGIStelRBDxJ9E2L-32" vertex="1">
          <mxGeometry x="462" width="154" height="66" as="geometry">
            <mxRectangle width="154" height="66" as="alternateBounds" />
          </mxGeometry>
        </mxCell>
        <mxCell id="sKIPhGIStelRBDxJ9E2L-37" style="shape=partialRectangle;html=1;whiteSpace=wrap;connectable=0;strokeColor=inherit;overflow=hidden;fillColor=none;top=0;left=0;bottom=0;right=0;pointerEvents=1;fontSize=16;" parent="sKIPhGIStelRBDxJ9E2L-32" vertex="1">
          <mxGeometry x="616" width="154" height="66" as="geometry">
            <mxRectangle width="154" height="66" as="alternateBounds" />
          </mxGeometry>
        </mxCell>
        <mxCell id="VhlRy4VZhJ0WZ9JeDpgp-6" style="shape=partialRectangle;html=1;whiteSpace=wrap;connectable=0;strokeColor=inherit;overflow=hidden;fillColor=none;top=0;left=0;bottom=0;right=0;pointerEvents=1;fontSize=16;" parent="sKIPhGIStelRBDxJ9E2L-32" vertex="1">
          <mxGeometry x="770" width="154" height="66" as="geometry">
            <mxRectangle width="154" height="66" as="alternateBounds" />
          </mxGeometry>
        </mxCell>
        <mxCell id="VhlRy4VZhJ0WZ9JeDpgp-13" style="shape=partialRectangle;html=1;whiteSpace=wrap;connectable=0;strokeColor=inherit;overflow=hidden;fillColor=none;top=0;left=0;bottom=0;right=0;pointerEvents=1;fontSize=16;" parent="sKIPhGIStelRBDxJ9E2L-32" vertex="1">
          <mxGeometry x="924" width="154" height="66" as="geometry">
            <mxRectangle width="154" height="66" as="alternateBounds" />
          </mxGeometry>
        </mxCell>
        <mxCell id="sKIPhGIStelRBDxJ9E2L-38" style="shape=tableRow;horizontal=0;startSize=0;swimlaneHead=0;swimlaneBody=0;strokeColor=inherit;top=0;left=0;bottom=0;right=0;collapsible=0;dropTarget=0;fillColor=none;points=[[0,0.5],[1,0.5]];portConstraint=eastwest;fontSize=16;" parent="sKIPhGIStelRBDxJ9E2L-1" vertex="1">
          <mxGeometry y="426" width="1078" height="66" as="geometry" />
        </mxCell>
        <mxCell id="sKIPhGIStelRBDxJ9E2L-39" value="Колл-центр" style="shape=partialRectangle;html=1;whiteSpace=wrap;connectable=0;strokeColor=inherit;overflow=hidden;fillColor=none;top=0;left=0;bottom=0;right=0;pointerEvents=1;fontSize=16;" parent="sKIPhGIStelRBDxJ9E2L-38" vertex="1">
          <mxGeometry width="154" height="66" as="geometry">
            <mxRectangle width="154" height="66" as="alternateBounds" />
          </mxGeometry>
        </mxCell>
        <mxCell id="sKIPhGIStelRBDxJ9E2L-40" value="" style="shape=partialRectangle;html=1;whiteSpace=wrap;connectable=0;strokeColor=inherit;overflow=hidden;fillColor=none;top=0;left=0;bottom=0;right=0;pointerEvents=1;fontSize=16;" parent="sKIPhGIStelRBDxJ9E2L-38" vertex="1">
          <mxGeometry x="154" width="154" height="66" as="geometry">
            <mxRectangle width="154" height="66" as="alternateBounds" />
          </mxGeometry>
        </mxCell>
        <mxCell id="sKIPhGIStelRBDxJ9E2L-41" style="shape=partialRectangle;html=1;whiteSpace=wrap;connectable=0;strokeColor=inherit;overflow=hidden;fillColor=none;top=0;left=0;bottom=0;right=0;pointerEvents=1;fontSize=16;" parent="sKIPhGIStelRBDxJ9E2L-38" vertex="1">
          <mxGeometry x="308" width="154" height="66" as="geometry">
            <mxRectangle width="154" height="66" as="alternateBounds" />
          </mxGeometry>
        </mxCell>
        <mxCell id="sKIPhGIStelRBDxJ9E2L-42" style="shape=partialRectangle;html=1;whiteSpace=wrap;connectable=0;strokeColor=inherit;overflow=hidden;fillColor=none;top=0;left=0;bottom=0;right=0;pointerEvents=1;fontSize=16;" parent="sKIPhGIStelRBDxJ9E2L-38" vertex="1">
          <mxGeometry x="462" width="154" height="66" as="geometry">
            <mxRectangle width="154" height="66" as="alternateBounds" />
          </mxGeometry>
        </mxCell>
        <mxCell id="sKIPhGIStelRBDxJ9E2L-43" style="shape=partialRectangle;html=1;whiteSpace=wrap;connectable=0;strokeColor=inherit;overflow=hidden;fillColor=none;top=0;left=0;bottom=0;right=0;pointerEvents=1;fontSize=16;" parent="sKIPhGIStelRBDxJ9E2L-38" vertex="1">
          <mxGeometry x="616" width="154" height="66" as="geometry">
            <mxRectangle width="154" height="66" as="alternateBounds" />
          </mxGeometry>
        </mxCell>
        <mxCell id="VhlRy4VZhJ0WZ9JeDpgp-7" style="shape=partialRectangle;html=1;whiteSpace=wrap;connectable=0;strokeColor=inherit;overflow=hidden;fillColor=none;top=0;left=0;bottom=0;right=0;pointerEvents=1;fontSize=16;" parent="sKIPhGIStelRBDxJ9E2L-38" vertex="1">
          <mxGeometry x="770" width="154" height="66" as="geometry">
            <mxRectangle width="154" height="66" as="alternateBounds" />
          </mxGeometry>
        </mxCell>
        <mxCell id="VhlRy4VZhJ0WZ9JeDpgp-14" style="shape=partialRectangle;html=1;whiteSpace=wrap;connectable=0;strokeColor=inherit;overflow=hidden;fillColor=none;top=0;left=0;bottom=0;right=0;pointerEvents=1;fontSize=16;" parent="sKIPhGIStelRBDxJ9E2L-38" vertex="1">
          <mxGeometry x="924" width="154" height="66" as="geometry">
            <mxRectangle width="154" height="66" as="alternateBounds" />
          </mxGeometry>
        </mxCell>
        <mxCell id="VhlRy4VZhJ0WZ9JeDpgp-16" value="АБС" style="rounded=1;whiteSpace=wrap;html=1;fillColor=#e1d5e7;strokeColor=#9673a6;arcSize=4;fillStyle=solid;opacity=70;" parent="1" vertex="1">
          <mxGeometry x="250" y="185" width="590" height="315" as="geometry" />
        </mxCell>
        <mxCell id="VhlRy4VZhJ0WZ9JeDpgp-17" value="Система колл-центра" style="rounded=1;whiteSpace=wrap;html=1;fillColor=#dae8fc;strokeColor=#6c8ebf;fontSize=8;" parent="1" vertex="1">
          <mxGeometry x="868" y="511" width="120" height="23" as="geometry" />
        </mxCell>
        <mxCell id="VhlRy4VZhJ0WZ9JeDpgp-18" value="Система партнерского колл-центра" style="rounded=1;whiteSpace=wrap;html=1;fillColor=#dae8fc;strokeColor=#6c8ebf;fontSize=8;" parent="1" vertex="1">
          <mxGeometry x="868" y="538" width="120" height="30" as="geometry" />
        </mxCell>
        <mxCell id="VhlRy4VZhJ0WZ9JeDpgp-19" value="СМС-шлюз телеком-оператора" style="rounded=1;whiteSpace=wrap;html=1;fillColor=#dae8fc;strokeColor=#6c8ebf;" parent="1" vertex="1">
          <mxGeometry x="1020" y="447" width="120" height="50" as="geometry" />
        </mxCell>
        <mxCell id="VhlRy4VZhJ0WZ9JeDpgp-20" value="Сайт" style="rounded=1;whiteSpace=wrap;html=1;fillColor=#dae8fc;strokeColor=#6c8ebf;" parent="1" vertex="1">
          <mxGeometry x="250" y="449" width="120" height="51" as="geometry" />
        </mxCell>
        <mxCell id="VhlRy4VZhJ0WZ9JeDpgp-15" value="Интернет-банк" style="rounded=1;whiteSpace=wrap;html=1;fillColor=#dae8fc;strokeColor=#6c8ebf;" parent="1" vertex="1">
          <mxGeometry x="400" y="260" width="130" height="30" as="geometry" />
        </mxCell>
      </root>
    </mxGraphModel>
  </diagram>
</mxfile>
